<?xml version="1.0" encoding="UTF-8" standalone="no"?>
<svg
   xml:space="preserve"
   style="enable-background:new 0 0 449.148 510.001"
   viewBox="0 0 449.148 510.001"
   version="1.1"
   id="svg36"
   sodipodi:docname="favicon.svg"
   inkscape:version="1.4 (e7c3feb, 2024-10-09)"
   xmlns:inkscape="http://www.inkscape.org/namespaces/inkscape"
   xmlns:sodipodi="http://sodipodi.sourceforge.net/DTD/sodipodi-0.dtd"
   xmlns="http://www.w3.org/2000/svg"
   xmlns:svg="http://www.w3.org/2000/svg"><defs
     id="defs36" /><sodipodi:namedview
     id="namedview36"
     pagecolor="#ffffff"
     bordercolor="#000000"
     borderopacity="0.25"
     inkscape:showpageshadow="2"
     inkscape:pageopacity="0.0"
     inkscape:pagecheckerboard="0"
     inkscape:deskcolor="#d1d1d1"
     showgrid="false"
     inkscape:zoom="1.1310303"
     inkscape:cx="252.86679"
     inkscape:cy="286.46447"
     inkscape:window-width="1920"
     inkscape:window-height="1011"
     inkscape:window-x="0"
     inkscape:window-y="32"
     inkscape:window-maximized="1"
     inkscape:current-layer="svg36" /><path
     style="fill:#000000;stroke-width:1.15784"
     d="m 189.03986,447.1306 c -9.96272,-3.82783 -24.31551,-15.47043 -24.31551,-19.72412 0,-1.06037 1.74202,-1.92794 3.87116,-1.92794 2.12913,0 4.42585,-0.8975 5.10379,-1.99444 0.70811,-1.14574 -1.15137,-2.01306 -4.36976,-2.03823 -8.20772,-0.0642 -21.73199,-6.8181 -25.66139,-12.81512 -1.87952,-2.86849 -3.07135,-5.53159 -2.64852,-5.91798 0.42281,-0.38641 6.02524,0.0259 12.44979,0.91633 13.84744,1.91911 42.79498,-0.72249 54.96311,-5.01566 4.75671,-1.67826 9.08737,-3.05139 9.62369,-3.05139 0.53632,0 -4.38912,5.73442 -10.94544,12.74314 -15.78367,16.8728 -17.29146,26.56628 -6.00614,38.61349 5.3071,5.66541 2.268,5.71879 -12.06478,0.21192 z m -44.0149,-53.56711 c -19.54666,-4.61495 -24.36041,-22.80011 -8.74393,-33.03242 4.64491,-3.04346 4.7284,-3.00879 2.55119,1.05938 -5.83692,10.90638 3.45136,16.3316 30.07622,17.5673 18.07038,0.83867 59.29721,-3.26481 75.09458,-7.47447 3.56504,-0.95002 6.48189,-1.31223 6.48189,-0.80491 0,2.60294 -38.76745,19.12214 -50.858,21.67111 -14.83047,3.12662 -43.40628,3.65729 -54.60195,1.01401 z m 18.37919,-26.0942 c -12.70343,-3.04395 -14.25738,-6.2571 -7.64243,-15.80248 3.03394,-4.37799 5.73334,-7.95997 5.99866,-7.95997 0.26533,0 3.95762,1.52994 8.2051,3.39986 17.26518,7.60087 89.98896,1.35182 130.29462,-11.19604 7.08301,-2.20507 13.2763,-3.61112 13.76284,-3.12458 0.48656,0.48656 -10.30539,6.29398 -23.98211,12.90539 -32.05242,15.49434 -58.28124,21.95727 -93.40557,23.0156 -13.71171,0.41317 -28.66571,-0.14384 -33.23111,-1.23778 z m 35.22554,-27.05346 c -2.74233,-0.41314 -8.79615,-1.24226 -13.45293,-1.84251 -10.51899,-1.35586 -20.45241,-9.22331 -20.45241,-16.19868 0,-4.01352 0.701,-4.72688 3.49026,-3.55189 26.5641,11.19022 115.89934,-4.56857 176.39285,-31.11581 10.20956,-4.48041 19.77541,-8.6528 21.25744,-9.272 5.44178,-2.27357 -3.42406,10.84725 -13.09848,19.38485 -17.50025,15.44381 -50.2705,29.06331 -88.32049,36.70649 -19.34951,3.88678 -56.84083,7.24166 -65.81624,5.88955 z m -15.96836,-32.33915 c -6.67939,-2.21705 -17.45699,-7.85024 -18.61379,-9.72898 -0.51137,-0.83051 6.3873,-1.77094 15.33038,-2.08987 53.33299,-1.90197 149.12908,-34.24651 206.72835,-69.79965 7.13009,-4.40106 13.27358,-7.70701 13.6522,-7.34661 1.77003,1.68489 -2.51143,13.46999 -7.78717,21.43489 -15.06478,22.74368 -73.93383,49.96141 -136.92328,63.30561 -20.91468,4.43074 -64.16164,6.95471 -72.38669,4.22461 z m -36.88407,-25.47502 c -17.56081,-2.67839 -36.897,-11.30694 -36.897,-16.46486 0,-0.82065 4.71186,-0.82103 10.47079,-8.4e-4 79.09936,11.26553 240.70163,-46.10716 294.03697,-104.39018 18.35292,-20.05545 22.67804,-40.0307 11.76701,-54.3451 l -5.82596,-7.64317 6.52817,3.80459 c 9.17771,5.34876 15.61394,13.56547 18.22682,23.26895 4.67544,17.36326 -2.53535,34.0748 -23.93115,55.46227 -41.05471,41.03869 -130.80256,82.95953 -204.57055,95.55401 -22.63388,3.86431 -59.27728,6.36004 -69.8051,4.75433 z m -38.98994,-36.60365 c -22.094992,-3.53219 -47.793223,-16.04837 -54.749937,-26.66565 -1.612625,-2.46118 -3.530871,-7.56917 -4.262763,-11.35112 -1.315245,-6.79631 -1.283405,-6.83443 2.73884,-3.27942 11.255022,9.94762 47.63406,17.33443 85.29164,17.31856 86.70307,-0.0365 190.31069,-30.00897 229.90992,-66.51029 15.52481,-14.31026 18.74188,-27.72851 9.3298,-38.91414 -5.90662,-7.01961 -22.35689,-15.31933 -33.81327,-17.05993 l -7.97772,-1.21207 10.26124,4.21025 c 14.46482,5.93501 23.14515,15.31686 22.22804,24.02446 l -0.70943,6.73565 -2.82053,-5.64466 c -5.95319,-11.91394 -29.6137,-18.99694 -68.84796,-20.61033 -23.16228,-0.95247 -32.17181,-0.42116 -52.85243,3.11682 -54.15392,9.26451 -96.54128,28.4197 -106.80397,48.26559 -4.72902,9.14492 -3.31762,10.33594 3.80632,3.21201 20.99141,-20.99139 74.68265,-35.73905 129.92248,-35.68648 41.14875,0.0391 70.99537,8.49343 72.39897,20.50748 0.32969,2.82199 -0.69769,6.20742 -2.28309,7.52319 -2.33713,1.93963 -2.82793,1.71865 -2.59388,-1.16793 0.18773,-2.31533 -2.50091,-4.93172 -7.68906,-7.48245 -16.07064,-7.90108 -85.71739,-5.57839 -114.79788,3.82843 l -8.85687,2.86499 14.95823,-1.3856 c 24.45293,-2.26511 63.72615,-1.58179 80.32245,1.39753 15.21853,2.732 15.43844,2.85512 11.9666,6.69998 -8.86471,9.81717 -42.00186,22.21074 -81.01802,30.30145 C 128.55807,210.038 31.79928,191.67135 10.101585,147.32288 -2.3021849,121.97048 10.371662,98.04258 45.522546,80.449013 63.352034,71.525058 71.393965,69.858167 60.301561,77.385689 44.740149,87.94594 40.624049,91.65419 34.942149,100.23229 c -8.164571,12.32625 -10.520711,22.08555 -7.784903,32.24558 3.066982,11.38991 15.523006,24.13484 29.888419,30.58164 12.301789,5.52072 41.888305,13.67198 57.817905,15.92919 l 8.97494,1.27173 -9.54962,-5.11146 C 103.7769,169.52242 96.93264,160.25952 96.92114,151.64377 96.86844,112.16765 213.32949,72.408129 306.1516,80.213023 c 73.55563,6.184877 108.55386,32.676267 89.95015,68.086447 -18.39468,35.01231 -96.63455,75.86742 -177.52774,92.70103 -20.34901,4.23455 -31.89409,5.33301 -62.82459,5.9774 -20.84182,0.4342 -42.87475,-0.007 -48.9621,-0.97989 z M 59.084396,145.33912 c -3.676156,-4.4295 -4.79854,-17.70599 -2.170134,-25.67015 2.845072,-8.62065 21.263183,-26.19486 36.273627,-34.6116 C 129.62191,64.627857 191.42948,50.340857 241.50997,50.772268 l 25.92762,0.223346 -19.94432,2.69819 C 166.95658,64.58929 87.283429,96.80843 67.700303,126.40051 c -3.075957,4.64808 -5.463186,11.1061 -5.545184,15.00103 -0.167041,7.93362 0.03288,7.67724 -3.070723,3.93758 z"
     id="path1"
     sodipodi:nodetypes="sssssssssssssssssssssssssssssssssssssssssssssssssssscssssscssssssscsscssssssssssscssssssssssscsssssscsssscssss" /></svg>
