<?xml version="1.0" encoding="UTF-8" standalone="no"?>
<svg
   xml:space="preserve"
   viewBox="0 0 631.69048 65.675147"
   version="1.1"
   id="svg36"
   sodipodi:docname="logo-text.svg"
   inkscape:version="1.4 (e7c3feb, 2024-10-09)"
   width="631.69049"
   height="65.675148"
   xmlns:inkscape="http://www.inkscape.org/namespaces/inkscape"
   xmlns:sodipodi="http://sodipodi.sourceforge.net/DTD/sodipodi-0.dtd"
   xmlns="http://www.w3.org/2000/svg"
   xmlns:svg="http://www.w3.org/2000/svg"><defs
     id="defs36" /><sodipodi:namedview
     id="namedview36"
     pagecolor="#ffffff"
     bordercolor="#000000"
     borderopacity="0.25"
     inkscape:showpageshadow="2"
     inkscape:pageopacity="0.0"
     inkscape:pagecheckerboard="0"
     inkscape:deskcolor="#d1d1d1"
     showgrid="false"
     inkscape:zoom="1.1310303"
     inkscape:cx="393.44658"
     inkscape:cy="-218.38495"
     inkscape:window-width="1920"
     inkscape:window-height="1011"
     inkscape:window-x="0"
     inkscape:window-y="32"
     inkscape:window-maximized="1"
     inkscape:current-layer="svg36" /><path
     style="fill:#000000"
     d="M 1.29192,64.46883 C 0.58136,63.74906 0,48.94911 0,31.58007 V 0 l 16.79486,0.01 c 26.97034,0.0154 36.94868,4.34712 36.94868,16.03978 0,7.27644 -2.51133,11.1049 -8.88646,13.54715 l -4.37717,1.67686 5.46828,2.31225 c 12.95052,5.47611 14.19915,20.50415 2.2832,27.4797 -4.91232,2.87564 -9.69779,3.63884 -25.83824,4.12073 -10.89513,0.3253 -20.39068,0.003 -21.10123,-0.71725 z M 36.97766,53.44646 c 3.36951,-2.79644 3.41729,-11.03916 0.08,-13.80883 -1.40851,-1.16896 -6.64076,-2.23281 -11.6272,-2.3641 l -9.06628,-0.23872 -0.5393,7.5179 c -0.83932,11.69991 0.12708,12.85211 9.98514,11.90487 4.68965,-0.45061 9.71507,-1.80562 11.1676,-3.01112 z M 35.18923,24.85393 c 3.39484,-3.39485 3.49984,-9.99359 0.20254,-12.7301 C 34.0144,10.98071 29.16973,9.91687 24.62584,9.75973 l -8.26162,-0.28571 -0.52065,9.04339 -0.52066,9.04338 h 8.57973 c 5.50302,0 9.55041,-0.97068 11.28659,-2.70686 z m 26.82255,38.8439 c 0,-0.96747 5.42603,-14.5704 12.05784,-30.22873 6.63182,-15.65833 12.05785,-29.20699 12.05785,-30.10812 0,-0.90114 3.74284,-1.63843 8.31743,-1.63843 h 8.31743 l 11.70898,29.71398 c 6.43994,16.34269 12.08179,30.68291 12.53745,31.86716 0.59344,1.54233 -1.56624,2.15319 -7.61259,2.15319 -8.36451,0 -8.46522,-0.0664 -11.10443,-7.32084 l -2.66337,-7.32083 -12.39719,-0.50737 -12.39719,-0.50737 -3.46279,7.8282 c -3.14484,7.10943 -4.00895,7.82821 -9.4111,7.82821 -3.27158,0 -5.94832,-0.79157 -5.94832,-1.75905 z m 39.59005,-23.64855 c -0.079,-3.56822 -8.20508,-23.10818 -9.04492,-21.74929 -1.43295,2.31856 -8.15011,20.24166 -8.15112,21.74929 -4.8e-4,0.71055 3.87487,1.29191 8.61188,1.29191 4.73701,0 8.59988,-0.58136 8.58416,-1.29191 z m 34.87135,-6.02893 0.4695,-31.43652 h 7.75147 7.75147 l 0.47682,26.51401 0.47683,26.51402 12.87293,-0.97358 c 13.55022,-1.0248 13.87173,-0.83543 11.78723,6.94286 -1.00338,3.7441 -1.73519,3.87574 -21.5472,3.87574 h -20.50855 z m 51.67648,0 0.46949,-31.43652 19.80932,0.0259 c 21.98422,0.0288 28.60392,2.02401 32.29991,9.73544 2.93563,6.12499 0.38901,12.52016 -6.70313,16.83314 l -5.49497,3.3417 4.46399,1.12039 c 10.63169,2.66838 14.18178,15.82431 6.48187,24.02049 -5.63229,5.9953 -13.42715,7.77512 -34.10099,7.78634 l -17.69499,0.01 z m 35.895,19.31808 c 2.13014,-1.14002 3.33185,-3.60328 3.33185,-6.82959 0,-6.38864 -3.97415,-8.61275 -15.3897,-8.61275 h -8.72599 v 8.61275 8.61274 h 8.72599 c 4.7993,0 10.22533,-0.80242 12.05785,-1.78315 z m -4.57987,-25.71671 c 4.95624,-1.88436 7.59975,-9.20486 4.62035,-12.79482 -2.47107,-2.97746 -11.28138,-4.7907 -16.6862,-3.43418 -3.55227,0.89157 -4.13812,2.06893 -4.13812,8.31625 0,4.0027 0.51677,7.7944 1.14837,8.42601 1.68403,1.68402 10.02413,1.3997 15.0556,-0.51326 z M 270.44025,64.214 c -15.95462,-5.99507 -23.52248,-27.388 -15.70839,-44.40468 3.76342,-8.19557 7.60487,-11.86823 16.14674,-15.43725 14.17665,-5.92338 32.20015,-0.99093 39.54596,10.82246 3.12703,5.02882 3.94069,8.82701 3.94069,18.39519 0,14.96672 -4.33842,23.01741 -15.25047,28.29984 -7.12246,3.44792 -22.39077,4.68562 -28.67453,2.32444 z m 19.73214,-8.43988 c 4.96032,-1.90346 7.82865,-10.26737 7.82865,-22.82797 0,-10.40883 -0.59494,-12.71827 -4.4595,-17.31104 -5.80551,-6.89945 -13.78403,-7.24407 -19.78657,-0.85466 -3.7304,3.97083 -4.176,5.97787 -4.176,18.80927 0,12.83139 0.4456,14.83843 4.176,18.80926 4.10034,4.36462 10.44161,5.66827 16.41742,3.37514 z M 327.28437,33.33374 V 1.2106 l 19.60112,0.96535 c 21.51298,1.05951 28.40841,3.38298 31.74001,10.69504 3.66556,8.04503 2.49835,12.93211 -4.84172,20.27218 l -6.89961,6.89962 3.34088,5.38621 c 1.83749,2.96241 6.10504,8.05749 9.48344,11.3224 3.37841,3.26491 6.14256,6.55928 6.14256,7.32084 0,0.76155 -4.26753,1.38464 -9.48341,1.38464 h -9.48341 l -8.05462,-11.19657 c -5.93132,-8.24501 -9.10745,-11.19657 -12.04846,-11.19657 -3.76712,0 -3.99383,0.63558 -3.99383,11.19657 v 11.19657 h -7.75147 -7.75148 z m 34.32597,-5.14397 c 4.46296,-5.67374 4.48907,-8.32278 0.12502,-12.68682 -2.42433,-2.42433 -5.74183,-3.4451 -11.19657,-3.4451 h -7.75147 v 10.33529 10.3353 h 7.62645 c 6.1873,0 8.30015,-0.85647 11.19657,-4.53867 z m 32.85346,5.39995 V 1.72255 h 7.75147 7.75147 v 31.86717 31.86716 h -7.75147 -7.75147 z m 32.72843,0.10913 V 1.72255 h 6.58994 c 7.81432,0 8.98214,1.13633 25.46457,24.77801 l 11.8705,17.02654 0.48366,-20.90228 0.48365,-20.90227 h 6.01477 6.01476 l -0.4695,31.43653 -0.46949,31.43652 -7.09389,0.51859 -7.0939,0.5186 -14.81152,-21.03867 -14.81152,-21.03867 -0.48773,20.52008 -0.48773,20.52007 -5.59828,0.53978 -5.59829,0.53977 z m 72.34708,-0.10913 V 1.53379 l 8.1821,0.52502 8.18211,0.52502 0.5031,13.34975 0.50309,13.34976 h 11.98539 11.98539 V 15.50295 1.72255 h 7.75147 7.75147 v 31.86717 31.86716 h -7.75147 -7.75147 V 51.67648 37.89609 H 528.8951 516.90971 l -0.50309,13.34976 -0.5031,13.34975 -8.18211,0.52502 -8.1821,0.52502 z m 84.71433,29.064 C 574.84172,57.86144 569.6086,49.42328 568.75832,37.66826 567.26198,16.98167 577.74093,3.66738 596.75988,2.09018 c 11.93196,-0.98949 20.21606,1.86748 26.64439,9.18895 12.96307,14.76412 10.40535,37.87994 -5.49476,49.65979 -6.56251,4.86194 -25.57268,5.83053 -33.65587,1.7148 z m 23.73833,-7.49578 c 7.03386,-3.76441 9.38245,-25.33222 3.941,-36.19143 -5.32594,-10.62868 -18.62515,-11.52061 -23.7587,-1.59341 -5.47099,10.57972 -2.37143,35.44195 4.77709,38.31814 3.75737,1.51176 11.74883,1.22841 15.04061,-0.5333 z"
     id="path1"
     sodipodi:nodetypes="csccsscsssccssscssssssscccsssssscsssscccssssssssccccccsssccccssscsscccssscccssssssssssssssssssssssccssscsssscsssccccssscccsscccccccccccsscccccccccccccccccccccccccccccccccccccccccsssssssssss" /></svg>
